<svg width="367" height="220" viewBox="0 0 367 220" fill="none" xmlns="http://www.w3.org/2000/svg">
<g transform="scale(0.5)">
<rect width="735" height="440" fill="#fdf5e6"/>
<path d="M163.873 352.375V356.98H167.424V359.494H163.873V371.289C163.873 372.051 164.031 372.625 164.348 373.012C164.664 373.387 165.203 373.574 165.965 373.574C166.34 373.574 166.855 373.504 167.512 373.363V376C166.656 376.234 165.824 376.352 165.016 376.352C163.562 376.352 162.467 375.912 161.729 375.033C160.99 374.154 160.621 372.906 160.621 371.289V359.494H157.158V356.98H160.621V352.375H163.873ZM170.025 366.314C170.025 364.451 170.389 362.775 171.115 361.287C171.854 359.799 172.873 358.65 174.174 357.842C175.486 357.033 176.98 356.629 178.656 356.629C181.246 356.629 183.338 357.525 184.932 359.318C186.537 361.111 187.34 363.496 187.34 366.473V366.701C187.34 368.553 186.982 370.217 186.268 371.693C185.564 373.158 184.551 374.301 183.227 375.121C181.914 375.941 180.402 376.352 178.691 376.352C176.113 376.352 174.021 375.455 172.416 373.662C170.822 371.869 170.025 369.496 170.025 366.543V366.314ZM173.295 366.701C173.295 368.811 173.781 370.504 174.754 371.781C175.738 373.059 177.051 373.697 178.691 373.697C180.344 373.697 181.656 373.053 182.629 371.764C183.602 370.463 184.088 368.646 184.088 366.314C184.088 364.229 183.59 362.541 182.594 361.252C181.609 359.951 180.297 359.301 178.656 359.301C177.051 359.301 175.756 359.939 174.771 361.217C173.787 362.494 173.295 364.322 173.295 366.701ZM199.557 366.332C199.557 363.414 200.248 361.07 201.631 359.301C203.014 357.52 204.824 356.629 207.062 356.629C209.289 356.629 211.053 357.391 212.354 358.914V349H215.605V376H212.617L212.459 373.961C211.158 375.555 209.348 376.352 207.027 376.352C204.824 376.352 203.025 375.449 201.631 373.645C200.248 371.84 199.557 369.484 199.557 366.578V366.332ZM202.809 366.701C202.809 368.857 203.254 370.545 204.145 371.764C205.035 372.982 206.266 373.592 207.836 373.592C209.898 373.592 211.404 372.666 212.354 370.814V362.078C211.381 360.285 209.887 359.389 207.871 359.389C206.277 359.389 205.035 360.004 204.145 361.234C203.254 362.465 202.809 364.287 202.809 366.701ZM224.201 376H220.949V356.98H224.201V376ZM220.686 351.936C220.686 351.408 220.844 350.963 221.16 350.6C221.488 350.236 221.969 350.055 222.602 350.055C223.234 350.055 223.715 350.236 224.043 350.6C224.371 350.963 224.535 351.408 224.535 351.936C224.535 352.463 224.371 352.902 224.043 353.254C223.715 353.605 223.234 353.781 222.602 353.781C221.969 353.781 221.488 353.605 221.16 353.254C220.844 352.902 220.686 352.463 220.686 351.936ZM237.314 376.352C234.736 376.352 232.639 375.508 231.021 373.82C229.404 372.121 228.596 369.854 228.596 367.018V366.42C228.596 364.533 228.953 362.852 229.668 361.375C230.395 359.887 231.402 358.727 232.691 357.895C233.992 357.051 235.398 356.629 236.91 356.629C239.383 356.629 241.305 357.443 242.676 359.072C244.047 360.701 244.732 363.033 244.732 366.068V367.422H231.848C231.895 369.297 232.439 370.814 233.482 371.975C234.537 373.123 235.873 373.697 237.49 373.697C238.639 373.697 239.611 373.463 240.408 372.994C241.205 372.525 241.902 371.904 242.5 371.131L244.486 372.678C242.893 375.127 240.502 376.352 237.314 376.352ZM236.91 359.301C235.598 359.301 234.496 359.781 233.605 360.742C232.715 361.691 232.164 363.027 231.953 364.75H241.48V364.504C241.387 362.852 240.941 361.574 240.145 360.672C239.348 359.758 238.27 359.301 236.91 359.301Z" fill="black"/>
<path d="M458.873 352.375V356.98H462.424V359.494H458.873V371.289C458.873 372.051 459.031 372.625 459.348 373.012C459.664 373.387 460.203 373.574 460.965 373.574C461.34 373.574 461.855 373.504 462.512 373.363V376C461.656 376.234 460.824 376.352 460.016 376.352C458.562 376.352 457.467 375.912 456.729 375.033C455.99 374.154 455.621 372.906 455.621 371.289V359.494H452.158V356.98H455.621V352.375H458.873ZM465.025 366.314C465.025 364.451 465.389 362.775 466.115 361.287C466.854 359.799 467.873 358.65 469.174 357.842C470.486 357.033 471.98 356.629 473.656 356.629C476.246 356.629 478.338 357.525 479.932 359.318C481.537 361.111 482.34 363.496 482.34 366.473V366.701C482.34 368.553 481.982 370.217 481.268 371.693C480.564 373.158 479.551 374.301 478.227 375.121C476.914 375.941 475.402 376.352 473.691 376.352C471.113 376.352 469.021 375.455 467.416 373.662C465.822 371.869 465.025 369.496 465.025 366.543V366.314ZM468.295 366.701C468.295 368.811 468.781 370.504 469.754 371.781C470.738 373.059 472.051 373.697 473.691 373.697C475.344 373.697 476.656 373.053 477.629 371.764C478.602 370.463 479.088 368.646 479.088 366.314C479.088 364.229 478.59 362.541 477.594 361.252C476.609 359.951 475.297 359.301 473.656 359.301C472.051 359.301 470.756 359.939 469.771 361.217C468.787 362.494 468.295 364.322 468.295 366.701ZM498.424 356.98L498.529 359.371C499.982 357.543 501.881 356.629 504.225 356.629C508.244 356.629 510.271 358.896 510.307 363.432V376H507.055V363.414C507.043 362.043 506.727 361.029 506.105 360.373C505.496 359.717 504.541 359.389 503.24 359.389C502.186 359.389 501.26 359.67 500.463 360.232C499.666 360.795 499.045 361.533 498.6 362.447V376H495.348V356.98H498.424ZM514.35 366.314C514.35 364.451 514.713 362.775 515.439 361.287C516.178 359.799 517.197 358.65 518.498 357.842C519.811 357.033 521.305 356.629 522.98 356.629C525.57 356.629 527.662 357.525 529.256 359.318C530.861 361.111 531.664 363.496 531.664 366.473V366.701C531.664 368.553 531.307 370.217 530.592 371.693C529.889 373.158 528.875 374.301 527.551 375.121C526.238 375.941 524.727 376.352 523.016 376.352C520.438 376.352 518.346 375.455 516.74 373.662C515.146 371.869 514.35 369.496 514.35 366.543V366.314ZM517.619 366.701C517.619 368.811 518.105 370.504 519.078 371.781C520.062 373.059 521.375 373.697 523.016 373.697C524.668 373.697 525.98 373.053 526.953 371.764C527.926 370.463 528.412 368.646 528.412 366.314C528.412 364.229 527.914 362.541 526.918 361.252C525.934 359.951 524.621 359.301 522.98 359.301C521.375 359.301 520.08 359.939 519.096 361.217C518.111 362.494 517.619 364.322 517.619 366.701ZM540.154 352.375V356.98H543.705V359.494H540.154V371.289C540.154 372.051 540.312 372.625 540.629 373.012C540.945 373.387 541.484 373.574 542.246 373.574C542.621 373.574 543.137 373.504 543.793 373.363V376C542.938 376.234 542.105 376.352 541.297 376.352C539.844 376.352 538.748 375.912 538.01 375.033C537.271 374.154 536.902 372.906 536.902 371.289V359.494H533.439V356.98H536.902V352.375H540.154ZM555.658 366.332C555.658 363.414 556.35 361.07 557.732 359.301C559.115 357.52 560.926 356.629 563.164 356.629C565.391 356.629 567.154 357.391 568.455 358.914V349H571.707V376H568.719L568.561 373.961C567.26 375.555 565.449 376.352 563.129 376.352C560.926 376.352 559.127 375.449 557.732 373.645C556.35 371.84 555.658 369.484 555.658 366.578V366.332ZM558.91 366.701C558.91 368.857 559.355 370.545 560.246 371.764C561.137 372.982 562.367 373.592 563.938 373.592C566 373.592 567.506 372.666 568.455 370.814V362.078C567.482 360.285 565.988 359.389 563.973 359.389C562.379 359.389 561.137 360.004 560.246 361.234C559.355 362.465 558.91 364.287 558.91 366.701ZM580.303 376H577.051V356.98H580.303V376ZM576.787 351.936C576.787 351.408 576.945 350.963 577.262 350.6C577.59 350.236 578.07 350.055 578.703 350.055C579.336 350.055 579.816 350.236 580.145 350.6C580.473 350.963 580.637 351.408 580.637 351.936C580.637 352.463 580.473 352.902 580.145 353.254C579.816 353.605 579.336 353.781 578.703 353.781C578.07 353.781 577.59 353.605 577.262 353.254C576.945 352.902 576.787 352.463 576.787 351.936ZM593.416 376.352C590.838 376.352 588.74 375.508 587.123 373.82C585.506 372.121 584.697 369.854 584.697 367.018V366.42C584.697 364.533 585.055 362.852 585.77 361.375C586.496 359.887 587.504 358.727 588.793 357.895C590.094 357.051 591.5 356.629 593.012 356.629C595.484 356.629 597.406 357.443 598.777 359.072C600.148 360.701 600.834 363.033 600.834 366.068V367.422H587.949C587.996 369.297 588.541 370.814 589.584 371.975C590.639 373.123 591.975 373.697 593.592 373.697C594.74 373.697 595.713 373.463 596.51 372.994C597.307 372.525 598.004 371.904 598.602 371.131L600.588 372.678C598.994 375.127 596.604 376.352 593.416 376.352ZM593.012 359.301C591.699 359.301 590.598 359.781 589.707 360.742C588.816 361.691 588.266 363.027 588.055 364.75H597.582V364.504C597.488 362.852 597.043 361.574 596.246 360.672C595.449 359.758 594.371 359.301 593.012 359.301Z" fill="black"/>
<path d="M308.873 137.375V141.98H312.424V144.494H308.873V156.289C308.873 157.051 309.031 157.625 309.348 158.012C309.664 158.387 310.203 158.574 310.965 158.574C311.34 158.574 311.855 158.504 312.512 158.363V161C311.656 161.234 310.824 161.352 310.016 161.352C308.562 161.352 307.467 160.912 306.729 160.033C305.99 159.154 305.621 157.906 305.621 156.289V144.494H302.158V141.98H305.621V137.375H308.873ZM315.025 151.314C315.025 149.451 315.389 147.775 316.115 146.287C316.854 144.799 317.873 143.65 319.174 142.842C320.486 142.033 321.98 141.629 323.656 141.629C326.246 141.629 328.338 142.525 329.932 144.318C331.537 146.111 332.34 148.496 332.34 151.473V151.701C332.34 153.553 331.982 155.217 331.268 156.693C330.564 158.158 329.551 159.301 328.227 160.121C326.914 160.941 325.402 161.352 323.691 161.352C321.113 161.352 319.021 160.455 317.416 158.662C315.822 156.869 315.025 154.496 315.025 151.543V151.314ZM318.295 151.701C318.295 153.811 318.781 155.504 319.754 156.781C320.738 158.059 322.051 158.697 323.691 158.697C325.344 158.697 326.656 158.053 327.629 156.764C328.602 155.463 329.088 153.646 329.088 151.314C329.088 149.229 328.59 147.541 327.594 146.252C326.609 144.951 325.297 144.301 323.656 144.301C322.051 144.301 320.756 144.939 319.771 146.217C318.787 147.494 318.295 149.322 318.295 151.701ZM344.557 151.332C344.557 148.414 345.248 146.07 346.631 144.301C348.014 142.52 349.824 141.629 352.062 141.629C354.289 141.629 356.053 142.391 357.354 143.914V134H360.605V161H357.617L357.459 158.961C356.158 160.555 354.348 161.352 352.027 161.352C349.824 161.352 348.025 160.449 346.631 158.645C345.248 156.84 344.557 154.484 344.557 151.578V151.332ZM347.809 151.701C347.809 153.857 348.254 155.545 349.145 156.764C350.035 157.982 351.266 158.592 352.836 158.592C354.898 158.592 356.404 157.666 357.354 155.814V147.078C356.381 145.285 354.887 144.389 352.871 144.389C351.277 144.389 350.035 145.004 349.145 146.234C348.254 147.465 347.809 149.287 347.809 151.701ZM377.41 161C377.223 160.625 377.07 159.957 376.953 158.996C375.441 160.566 373.637 161.352 371.539 161.352C369.664 161.352 368.123 160.824 366.916 159.77C365.721 158.703 365.123 157.355 365.123 155.727C365.123 153.746 365.873 152.211 367.373 151.121C368.885 150.02 371.006 149.469 373.736 149.469H376.9V147.975C376.9 146.838 376.561 145.936 375.881 145.268C375.201 144.588 374.199 144.248 372.875 144.248C371.715 144.248 370.742 144.541 369.957 145.127C369.172 145.713 368.779 146.422 368.779 147.254H365.51C365.51 146.305 365.844 145.391 366.512 144.512C367.191 143.621 368.105 142.918 369.254 142.402C370.414 141.887 371.686 141.629 373.068 141.629C375.26 141.629 376.977 142.18 378.219 143.281C379.461 144.371 380.105 145.877 380.152 147.799V156.553C380.152 158.299 380.375 159.688 380.82 160.719V161H377.41ZM372.014 158.521C373.033 158.521 374 158.258 374.914 157.73C375.828 157.203 376.49 156.518 376.9 155.674V151.771H374.352C370.367 151.771 368.375 152.938 368.375 155.27C368.375 156.289 368.715 157.086 369.395 157.66C370.074 158.234 370.947 158.521 372.014 158.521ZM388.326 141.98L388.432 144.371C389.885 142.543 391.783 141.629 394.127 141.629C398.146 141.629 400.174 143.896 400.209 148.432V161H396.957V148.414C396.945 147.043 396.629 146.029 396.008 145.373C395.398 144.717 394.443 144.389 393.143 144.389C392.088 144.389 391.162 144.67 390.365 145.232C389.568 145.795 388.947 146.533 388.502 147.447V161H385.25V141.98H388.326ZM412.742 158.697C413.902 158.697 414.916 158.346 415.783 157.643C416.65 156.939 417.131 156.061 417.225 155.006H420.301C420.242 156.096 419.867 157.133 419.176 158.117C418.484 159.102 417.559 159.887 416.398 160.473C415.25 161.059 414.031 161.352 412.742 161.352C410.152 161.352 408.09 160.49 406.555 158.768C405.031 157.033 404.27 154.666 404.27 151.666V151.121C404.27 149.27 404.609 147.623 405.289 146.182C405.969 144.74 406.941 143.621 408.207 142.824C409.484 142.027 410.99 141.629 412.725 141.629C414.857 141.629 416.627 142.268 418.033 143.545C419.451 144.822 420.207 146.48 420.301 148.52H417.225C417.131 147.289 416.662 146.281 415.818 145.496C414.986 144.699 413.955 144.301 412.725 144.301C411.072 144.301 409.789 144.898 408.875 146.094C407.973 147.277 407.521 148.994 407.521 151.244V151.859C407.521 154.051 407.973 155.738 408.875 156.922C409.777 158.105 411.066 158.697 412.742 158.697ZM431.85 161.352C429.271 161.352 427.174 160.508 425.557 158.82C423.939 157.121 423.131 154.854 423.131 152.018V151.42C423.131 149.533 423.488 147.852 424.203 146.375C424.93 144.887 425.938 143.727 427.227 142.895C428.527 142.051 429.934 141.629 431.445 141.629C433.918 141.629 435.84 142.443 437.211 144.072C438.582 145.701 439.268 148.033 439.268 151.068V152.422H426.383C426.43 154.297 426.975 155.814 428.018 156.975C429.072 158.123 430.408 158.697 432.025 158.697C433.174 158.697 434.146 158.463 434.943 157.994C435.74 157.525 436.438 156.904 437.035 156.131L439.021 157.678C437.428 160.127 435.037 161.352 431.85 161.352ZM431.445 144.301C430.133 144.301 429.031 144.781 428.141 145.742C427.25 146.691 426.699 148.027 426.488 149.75H436.016V149.504C435.922 147.852 435.477 146.574 434.68 145.672C433.883 144.758 432.805 144.301 431.445 144.301Z" fill="black"/>
<path d="M413.061 365.061C413.646 364.475 413.646 363.525 413.061 362.939L403.515 353.393C402.929 352.808 401.979 352.808 401.393 353.393C400.808 353.979 400.808 354.929 401.393 355.515L409.879 364L401.393 372.485C400.808 373.071 400.808 374.021 401.393 374.607C401.979 375.192 402.929 375.192 403.515 374.607L413.061 365.061ZM282 365.5L412 365.5V362.5L282 362.5V365.5Z" fill="black"/>
<path d="M426.084 226.502C425.256 226.456 424.549 227.089 424.502 227.916L423.75 241.395C423.704 242.223 424.337 242.93 425.164 242.977C425.991 243.023 426.699 242.39 426.745 241.563L427.414 229.581L439.395 230.25C440.223 230.296 440.93 229.663 440.977 228.836C441.023 228.009 440.39 227.301 439.563 227.255L426.084 226.502ZM520.118 331L427.118 227L424.882 229L517.882 333L520.118 331Z" fill="black"/>
<path d="M405.757 53.7974L623.399 341.01C647.354 372.623 624.806 418 585.142 418H149.858C110.194 418 87.6461 372.623 111.601 341.01L329.243 53.7974C348.45 28.4507 386.55 28.4506 405.757 53.7974Z" stroke="black" stroke-width="4"/>
<path d="M64.5938 97.0938H85.5312L84.6562 102H57.8438L65.75 56.5H71.6562L64.5938 97.0938ZM109.5 67.5625C112.333 67.6042 114.76 68.375 116.781 69.875C118.802 71.375 120.292 73.4479 121.25 76.0938C122.229 78.7188 122.562 81.5938 122.25 84.7188L122.188 85.4062C121.792 88.6979 120.812 91.6771 119.25 94.3438C117.688 96.9896 115.667 99.0521 113.188 100.531C110.708 102.01 107.99 102.708 105.031 102.625C102.219 102.583 99.7917 101.812 97.75 100.312C95.7292 98.8125 94.25 96.7708 93.3125 94.1875C92.375 91.6042 92.0417 88.7604 92.3125 85.6562C92.625 82.1562 93.5729 79.0104 95.1562 76.2188C96.7396 73.4271 98.7708 71.2708 101.25 69.75C103.75 68.2083 106.5 67.4792 109.5 67.5625ZM98 85.6875C97.8542 87 97.8542 88.3646 98 89.7812C98.2083 92.2396 98.9375 94.1979 100.188 95.6562C101.458 97.1146 103.146 97.875 105.25 97.9375C107.125 98 108.854 97.5417 110.438 96.5625C112.021 95.5625 113.354 94.0625 114.438 92.0625C115.521 90.0625 116.219 87.8438 116.531 85.4062C116.698 83.4896 116.729 81.875 116.625 80.5625C116.375 78.0417 115.615 76.0521 114.344 74.5938C113.073 73.1354 111.385 72.3646 109.281 72.2812C106.365 72.2188 103.885 73.3646 101.844 75.7188C99.8021 78.0729 98.5417 81.1562 98.0625 84.9688L98 85.6875ZM138.25 94.0938L150.438 68.1875H156.406L139.375 102H135.062L128.438 68.1875H134L138.25 94.0938ZM170.531 102.625C166.323 102.542 163.031 100.99 160.656 97.9688C158.281 94.9479 157.281 91.0833 157.656 86.375L157.812 85.0312C158.167 81.6771 159.156 78.6146 160.781 75.8438C162.427 73.0729 164.427 70.9896 166.781 69.5938C169.135 68.1771 171.677 67.5 174.406 67.5625C177.885 67.6458 180.615 68.8021 182.594 71.0312C184.573 73.2604 185.656 76.2812 185.844 80.0938C185.906 81.4479 185.865 82.8021 185.719 84.1562L185.375 86.75H163.281C162.906 89.8125 163.406 92.4167 164.781 94.5625C166.177 96.7083 168.25 97.8229 171 97.9062C174.333 97.9896 177.417 96.4896 180.25 93.4062L183.5 96.1562C182.083 98.1979 180.25 99.8021 178 100.969C175.771 102.115 173.281 102.667 170.531 102.625ZM174.125 72.2812C171.792 72.2188 169.75 73.0104 168 74.6562C166.271 76.3021 164.896 78.75 163.875 82L180.312 82.0312L180.438 81.5312C180.771 78.9062 180.344 76.7292 179.156 75C177.99 73.25 176.312 72.3438 174.125 72.2812ZM198.156 89.2188C198.427 86.8229 199.062 84.7083 200.062 82.875C201.062 81.0417 202.688 79.125 204.938 77.125L207.469 74.9062C210.073 72.5938 211.542 70.1667 211.875 67.625C212.125 65.6667 211.802 64.0729 210.906 62.8438C210.01 61.6146 208.615 60.9583 206.719 60.875C204.594 60.8333 202.844 61.4062 201.469 62.5938C200.115 63.7604 199.26 65.2708 198.906 67.125L193.281 67.1562C193.677 63.7188 195.146 60.9688 197.688 58.9062C200.25 56.8229 203.375 55.8021 207.062 55.8438C210.562 55.9271 213.271 57.0312 215.188 59.1562C217.125 61.2812 217.948 64.0625 217.656 67.5C217.302 71.2917 215.177 74.9375 211.281 78.4375L207.469 81.6875C205.427 83.5417 204.167 86.0417 203.688 89.1875L198.156 89.2188ZM195.938 99.1875C195.958 98.2083 196.271 97.4062 196.875 96.7812C197.479 96.1354 198.281 95.7917 199.281 95.75C200.24 95.7292 201.031 96.0312 201.656 96.6562C202.302 97.2604 202.615 98.0521 202.594 99.0312C202.594 99.9896 202.281 100.781 201.656 101.406C201.031 102.031 200.229 102.354 199.25 102.375C198.271 102.417 197.469 102.135 196.844 101.531C196.24 100.927 195.938 100.146 195.938 99.1875ZM227.781 89.2188C228.052 86.8229 228.688 84.7083 229.688 82.875C230.688 81.0417 232.312 79.125 234.562 77.125L237.094 74.9062C239.698 72.5938 241.167 70.1667 241.5 67.625C241.75 65.6667 241.427 64.0729 240.531 62.8438C239.635 61.6146 238.24 60.9583 236.344 60.875C234.219 60.8333 232.469 61.4062 231.094 62.5938C229.74 63.7604 228.885 65.2708 228.531 67.125L222.906 67.1562C223.302 63.7188 224.771 60.9688 227.312 58.9062C229.875 56.8229 233 55.8021 236.688 55.8438C240.188 55.9271 242.896 57.0312 244.812 59.1562C246.75 61.2812 247.573 64.0625 247.281 67.5C246.927 71.2917 244.802 74.9375 240.906 78.4375L237.094 81.6875C235.052 83.5417 233.792 86.0417 233.312 89.1875L227.781 89.2188ZM225.562 99.1875C225.583 98.2083 225.896 97.4062 226.5 96.7812C227.104 96.1354 227.906 95.7917 228.906 95.75C229.865 95.7292 230.656 96.0312 231.281 96.6562C231.927 97.2604 232.24 98.0521 232.219 99.0312C232.219 99.9896 231.906 100.781 231.281 101.406C230.656 102.031 229.854 102.354 228.875 102.375C227.896 102.417 227.094 102.135 226.469 101.531C225.865 100.927 225.562 100.146 225.562 99.1875Z" fill="black"/>
</g>
</svg>
