<svg width="367" height="220" viewBox="0 0 367 220" fill="none" xmlns="http://www.w3.org/2000/svg">
<g transform="scale(0.5)">
<rect width="735" height="440" fill="#fdf5e6"/>
<path d="M163.873 352.375V356.98H167.424V359.494H163.873V371.289C163.873 372.051 164.031 372.625 164.348 373.012C164.664 373.387 165.203 373.574 165.965 373.574C166.34 373.574 166.855 373.504 167.512 373.363V376C166.656 376.234 165.824 376.352 165.016 376.352C163.562 376.352 162.467 375.912 161.729 375.033C160.99 374.154 160.621 372.906 160.621 371.289V359.494H157.158V356.98H160.621V352.375H163.873ZM170.025 366.314C170.025 364.451 170.389 362.775 171.115 361.287C171.854 359.799 172.873 358.65 174.174 357.842C175.486 357.033 176.98 356.629 178.656 356.629C181.246 356.629 183.338 357.525 184.932 359.318C186.537 361.111 187.34 363.496 187.34 366.473V366.701C187.34 368.553 186.982 370.217 186.268 371.693C185.564 373.158 184.551 374.301 183.227 375.121C181.914 375.941 180.402 376.352 178.691 376.352C176.113 376.352 174.021 375.455 172.416 373.662C170.822 371.869 170.025 369.496 170.025 366.543V366.314ZM173.295 366.701C173.295 368.811 173.781 370.504 174.754 371.781C175.738 373.059 177.051 373.697 178.691 373.697C180.344 373.697 181.656 373.053 182.629 371.764C183.602 370.463 184.088 368.646 184.088 366.314C184.088 364.229 183.59 362.541 182.594 361.252C181.609 359.951 180.297 359.301 178.656 359.301C177.051 359.301 175.756 359.939 174.771 361.217C173.787 362.494 173.295 364.322 173.295 366.701ZM199.557 366.332C199.557 363.414 200.248 361.07 201.631 359.301C203.014 357.52 204.824 356.629 207.062 356.629C209.289 356.629 211.053 357.391 212.354 358.914V349H215.605V376H212.617L212.459 373.961C211.158 375.555 209.348 376.352 207.027 376.352C204.824 376.352 203.025 375.449 201.631 373.645C200.248 371.84 199.557 369.484 199.557 366.578V366.332ZM202.809 366.701C202.809 368.857 203.254 370.545 204.145 371.764C205.035 372.982 206.266 373.592 207.836 373.592C209.898 373.592 211.404 372.666 212.354 370.814V362.078C211.381 360.285 209.887 359.389 207.871 359.389C206.277 359.389 205.035 360.004 204.145 361.234C203.254 362.465 202.809 364.287 202.809 366.701ZM224.201 376H220.949V356.98H224.201V376ZM220.686 351.936C220.686 351.408 220.844 350.963 221.16 350.6C221.488 350.236 221.969 350.055 222.602 350.055C223.234 350.055 223.715 350.236 224.043 350.6C224.371 350.963 224.535 351.408 224.535 351.936C224.535 352.463 224.371 352.902 224.043 353.254C223.715 353.605 223.234 353.781 222.602 353.781C221.969 353.781 221.488 353.605 221.16 353.254C220.844 352.902 220.686 352.463 220.686 351.936ZM237.314 376.352C234.736 376.352 232.639 375.508 231.021 373.82C229.404 372.121 228.596 369.854 228.596 367.018V366.42C228.596 364.533 228.953 362.852 229.668 361.375C230.395 359.887 231.402 358.727 232.691 357.895C233.992 357.051 235.398 356.629 236.91 356.629C239.383 356.629 241.305 357.443 242.676 359.072C244.047 360.701 244.732 363.033 244.732 366.068V367.422H231.848C231.895 369.297 232.439 370.814 233.482 371.975C234.537 373.123 235.873 373.697 237.49 373.697C238.639 373.697 239.611 373.463 240.408 372.994C241.205 372.525 241.902 371.904 242.5 371.131L244.486 372.678C242.893 375.127 240.502 376.352 237.314 376.352ZM236.91 359.301C235.598 359.301 234.496 359.781 233.605 360.742C232.715 361.691 232.164 363.027 231.953 364.75H241.48V364.504C241.387 362.852 240.941 361.574 240.145 360.672C239.348 359.758 238.27 359.301 236.91 359.301Z" fill="black"/>
<path d="M474.873 352.375V356.98H478.424V359.494H474.873V371.289C474.873 372.051 475.031 372.625 475.348 373.012C475.664 373.387 476.203 373.574 476.965 373.574C477.34 373.574 477.855 373.504 478.512 373.363V376C477.656 376.234 476.824 376.352 476.016 376.352C474.562 376.352 473.467 375.912 472.729 375.033C471.99 374.154 471.621 372.906 471.621 371.289V359.494H468.158V356.98H471.621V352.375H474.873ZM481.025 366.314C481.025 364.451 481.389 362.775 482.115 361.287C482.854 359.799 483.873 358.65 485.174 357.842C486.486 357.033 487.98 356.629 489.656 356.629C492.246 356.629 494.338 357.525 495.932 359.318C497.537 361.111 498.34 363.496 498.34 366.473V366.701C498.34 368.553 497.982 370.217 497.268 371.693C496.564 373.158 495.551 374.301 494.227 375.121C492.914 375.941 491.402 376.352 489.691 376.352C487.113 376.352 485.021 375.455 483.416 373.662C481.822 371.869 481.025 369.496 481.025 366.543V366.314ZM484.295 366.701C484.295 368.811 484.781 370.504 485.754 371.781C486.738 373.059 488.051 373.697 489.691 373.697C491.344 373.697 492.656 373.053 493.629 371.764C494.602 370.463 495.088 368.646 495.088 366.314C495.088 364.229 494.59 362.541 493.594 361.252C492.609 359.951 491.297 359.301 489.656 359.301C488.051 359.301 486.756 359.939 485.771 361.217C484.787 362.494 484.295 364.322 484.295 366.701ZM514.424 356.98L514.529 359.371C515.982 357.543 517.881 356.629 520.225 356.629C524.244 356.629 526.271 358.896 526.307 363.432V376H523.055V363.414C523.043 362.043 522.727 361.029 522.105 360.373C521.496 359.717 520.541 359.389 519.24 359.389C518.186 359.389 517.26 359.67 516.463 360.232C515.666 360.795 515.045 361.533 514.6 362.447V376H511.348V356.98H514.424ZM530.35 366.314C530.35 364.451 530.713 362.775 531.439 361.287C532.178 359.799 533.197 358.65 534.498 357.842C535.811 357.033 537.305 356.629 538.98 356.629C541.57 356.629 543.662 357.525 545.256 359.318C546.861 361.111 547.664 363.496 547.664 366.473V366.701C547.664 368.553 547.307 370.217 546.592 371.693C545.889 373.158 544.875 374.301 543.551 375.121C542.238 375.941 540.727 376.352 539.016 376.352C536.438 376.352 534.346 375.455 532.74 373.662C531.146 371.869 530.35 369.496 530.35 366.543V366.314ZM533.619 366.701C533.619 368.811 534.105 370.504 535.078 371.781C536.062 373.059 537.375 373.697 539.016 373.697C540.668 373.697 541.98 373.053 542.953 371.764C543.926 370.463 544.412 368.646 544.412 366.314C544.412 364.229 543.914 362.541 542.918 361.252C541.934 359.951 540.621 359.301 538.98 359.301C537.375 359.301 536.08 359.939 535.096 361.217C534.111 362.494 533.619 364.322 533.619 366.701ZM556.154 352.375V356.98H559.705V359.494H556.154V371.289C556.154 372.051 556.312 372.625 556.629 373.012C556.945 373.387 557.484 373.574 558.246 373.574C558.621 373.574 559.137 373.504 559.793 373.363V376C558.938 376.234 558.105 376.352 557.297 376.352C555.844 376.352 554.748 375.912 554.01 375.033C553.271 374.154 552.902 372.906 552.902 371.289V359.494H549.439V356.98H552.902V352.375H556.154ZM571.658 366.332C571.658 363.414 572.35 361.07 573.732 359.301C575.115 357.52 576.926 356.629 579.164 356.629C581.391 356.629 583.154 357.391 584.455 358.914V349H587.707V376H584.719L584.561 373.961C583.26 375.555 581.449 376.352 579.129 376.352C576.926 376.352 575.127 375.449 573.732 373.645C572.35 371.84 571.658 369.484 571.658 366.578V366.332ZM574.91 366.701C574.91 368.857 575.355 370.545 576.246 371.764C577.137 372.982 578.367 373.592 579.938 373.592C582 373.592 583.506 372.666 584.455 370.814V362.078C583.482 360.285 581.988 359.389 579.973 359.389C578.379 359.389 577.137 360.004 576.246 361.234C575.355 362.465 574.91 364.287 574.91 366.701ZM596.303 376H593.051V356.98H596.303V376ZM592.787 351.936C592.787 351.408 592.945 350.963 593.262 350.6C593.59 350.236 594.07 350.055 594.703 350.055C595.336 350.055 595.816 350.236 596.145 350.6C596.473 350.963 596.637 351.408 596.637 351.936C596.637 352.463 596.473 352.902 596.145 353.254C595.816 353.605 595.336 353.781 594.703 353.781C594.07 353.781 593.59 353.605 593.262 353.254C592.945 352.902 592.787 352.463 592.787 351.936ZM609.416 376.352C606.838 376.352 604.74 375.508 603.123 373.82C601.506 372.121 600.697 369.854 600.697 367.018V366.42C600.697 364.533 601.055 362.852 601.77 361.375C602.496 359.887 603.504 358.727 604.793 357.895C606.094 357.051 607.5 356.629 609.012 356.629C611.484 356.629 613.406 357.443 614.777 359.072C616.148 360.701 616.834 363.033 616.834 366.068V367.422H603.949C603.996 369.297 604.541 370.814 605.584 371.975C606.639 373.123 607.975 373.697 609.592 373.697C610.74 373.697 611.713 373.463 612.51 372.994C613.307 372.525 614.004 371.904 614.602 371.131L616.588 372.678C614.994 375.127 612.604 376.352 609.416 376.352ZM609.012 359.301C607.699 359.301 606.598 359.781 605.707 360.742C604.816 361.691 604.266 363.027 604.055 364.75H613.582V364.504C613.488 362.852 613.043 361.574 612.246 360.672C611.449 359.758 610.371 359.301 609.012 359.301Z" fill="black"/>
<path d="M308.873 137.375V141.98H312.424V144.494H308.873V156.289C308.873 157.051 309.031 157.625 309.348 158.012C309.664 158.387 310.203 158.574 310.965 158.574C311.34 158.574 311.855 158.504 312.512 158.363V161C311.656 161.234 310.824 161.352 310.016 161.352C308.562 161.352 307.467 160.912 306.729 160.033C305.99 159.154 305.621 157.906 305.621 156.289V144.494H302.158V141.98H305.621V137.375H308.873ZM315.025 151.314C315.025 149.451 315.389 147.775 316.115 146.287C316.854 144.799 317.873 143.65 319.174 142.842C320.486 142.033 321.98 141.629 323.656 141.629C326.246 141.629 328.338 142.525 329.932 144.318C331.537 146.111 332.34 148.496 332.34 151.473V151.701C332.34 153.553 331.982 155.217 331.268 156.693C330.564 158.158 329.551 159.301 328.227 160.121C326.914 160.941 325.402 161.352 323.691 161.352C321.113 161.352 319.021 160.455 317.416 158.662C315.822 156.869 315.025 154.496 315.025 151.543V151.314ZM318.295 151.701C318.295 153.811 318.781 155.504 319.754 156.781C320.738 158.059 322.051 158.697 323.691 158.697C325.344 158.697 326.656 158.053 327.629 156.764C328.602 155.463 329.088 153.646 329.088 151.314C329.088 149.229 328.59 147.541 327.594 146.252C326.609 144.951 325.297 144.301 323.656 144.301C322.051 144.301 320.756 144.939 319.771 146.217C318.787 147.494 318.295 149.322 318.295 151.701ZM344.557 151.332C344.557 148.414 345.248 146.07 346.631 144.301C348.014 142.52 349.824 141.629 352.062 141.629C354.289 141.629 356.053 142.391 357.354 143.914V134H360.605V161H357.617L357.459 158.961C356.158 160.555 354.348 161.352 352.027 161.352C349.824 161.352 348.025 160.449 346.631 158.645C345.248 156.84 344.557 154.484 344.557 151.578V151.332ZM347.809 151.701C347.809 153.857 348.254 155.545 349.145 156.764C350.035 157.982 351.266 158.592 352.836 158.592C354.898 158.592 356.404 157.666 357.354 155.814V147.078C356.381 145.285 354.887 144.389 352.871 144.389C351.277 144.389 350.035 145.004 349.145 146.234C348.254 147.465 347.809 149.287 347.809 151.701ZM377.41 161C377.223 160.625 377.07 159.957 376.953 158.996C375.441 160.566 373.637 161.352 371.539 161.352C369.664 161.352 368.123 160.824 366.916 159.77C365.721 158.703 365.123 157.355 365.123 155.727C365.123 153.746 365.873 152.211 367.373 151.121C368.885 150.02 371.006 149.469 373.736 149.469H376.9V147.975C376.9 146.838 376.561 145.936 375.881 145.268C375.201 144.588 374.199 144.248 372.875 144.248C371.715 144.248 370.742 144.541 369.957 145.127C369.172 145.713 368.779 146.422 368.779 147.254H365.51C365.51 146.305 365.844 145.391 366.512 144.512C367.191 143.621 368.105 142.918 369.254 142.402C370.414 141.887 371.686 141.629 373.068 141.629C375.26 141.629 376.977 142.18 378.219 143.281C379.461 144.371 380.105 145.877 380.152 147.799V156.553C380.152 158.299 380.375 159.688 380.82 160.719V161H377.41ZM372.014 158.521C373.033 158.521 374 158.258 374.914 157.73C375.828 157.203 376.49 156.518 376.9 155.674V151.771H374.352C370.367 151.771 368.375 152.938 368.375 155.27C368.375 156.289 368.715 157.086 369.395 157.66C370.074 158.234 370.947 158.521 372.014 158.521ZM388.326 141.98L388.432 144.371C389.885 142.543 391.783 141.629 394.127 141.629C398.146 141.629 400.174 143.896 400.209 148.432V161H396.957V148.414C396.945 147.043 396.629 146.029 396.008 145.373C395.398 144.717 394.443 144.389 393.143 144.389C392.088 144.389 391.162 144.67 390.365 145.232C389.568 145.795 388.947 146.533 388.502 147.447V161H385.25V141.98H388.326ZM412.742 158.697C413.902 158.697 414.916 158.346 415.783 157.643C416.65 156.939 417.131 156.061 417.225 155.006H420.301C420.242 156.096 419.867 157.133 419.176 158.117C418.484 159.102 417.559 159.887 416.398 160.473C415.25 161.059 414.031 161.352 412.742 161.352C410.152 161.352 408.09 160.49 406.555 158.768C405.031 157.033 404.27 154.666 404.27 151.666V151.121C404.27 149.27 404.609 147.623 405.289 146.182C405.969 144.74 406.941 143.621 408.207 142.824C409.484 142.027 410.99 141.629 412.725 141.629C414.857 141.629 416.627 142.268 418.033 143.545C419.451 144.822 420.207 146.48 420.301 148.52H417.225C417.131 147.289 416.662 146.281 415.818 145.496C414.986 144.699 413.955 144.301 412.725 144.301C411.072 144.301 409.789 144.898 408.875 146.094C407.973 147.277 407.521 148.994 407.521 151.244V151.859C407.521 154.051 407.973 155.738 408.875 156.922C409.777 158.105 411.066 158.697 412.742 158.697ZM431.85 161.352C429.271 161.352 427.174 160.508 425.557 158.82C423.939 157.121 423.131 154.854 423.131 152.018V151.42C423.131 149.533 423.488 147.852 424.203 146.375C424.93 144.887 425.938 143.727 427.227 142.895C428.527 142.051 429.934 141.629 431.445 141.629C433.918 141.629 435.84 142.443 437.211 144.072C438.582 145.701 439.268 148.033 439.268 151.068V152.422H426.383C426.43 154.297 426.975 155.814 428.018 156.975C429.072 158.123 430.408 158.697 432.025 158.697C433.174 158.697 434.146 158.463 434.943 157.994C435.74 157.525 436.438 156.904 437.035 156.131L439.021 157.678C437.428 160.127 435.037 161.352 431.85 161.352ZM431.445 144.301C430.133 144.301 429.031 144.781 428.141 145.742C427.25 146.691 426.699 148.027 426.488 149.75H436.016V149.504C435.922 147.852 435.477 146.574 434.68 145.672C433.883 144.758 432.805 144.301 431.445 144.301Z" fill="black"/>
<path d="M332.102 187C332.008 186.812 331.932 186.479 331.873 185.998C331.117 186.783 330.215 187.176 329.166 187.176C328.229 187.176 327.458 186.912 326.854 186.385C326.257 185.852 325.958 185.178 325.958 184.363C325.958 183.373 326.333 182.605 327.083 182.061C327.839 181.51 328.899 181.234 330.265 181.234H331.847V180.487C331.847 179.919 331.677 179.468 331.337 179.134C330.997 178.794 330.496 178.624 329.834 178.624C329.254 178.624 328.768 178.771 328.375 179.063C327.982 179.356 327.786 179.711 327.786 180.127H326.151C326.151 179.652 326.318 179.195 326.652 178.756C326.992 178.311 327.449 177.959 328.023 177.701C328.604 177.443 329.239 177.314 329.931 177.314C331.026 177.314 331.885 177.59 332.506 178.141C333.127 178.686 333.449 179.438 333.473 180.399V184.776C333.473 185.649 333.584 186.344 333.807 186.859V187H332.102ZM329.403 185.761C329.913 185.761 330.396 185.629 330.854 185.365C331.311 185.102 331.642 184.759 331.847 184.337V182.386H330.572C328.58 182.386 327.584 182.969 327.584 184.135C327.584 184.645 327.754 185.043 328.094 185.33C328.434 185.617 328.87 185.761 329.403 185.761ZM337.56 177.49L337.612 178.686C338.339 177.771 339.288 177.314 340.46 177.314C342.47 177.314 343.483 178.448 343.501 180.716V187H341.875V180.707C341.869 180.021 341.711 179.515 341.4 179.187C341.096 178.858 340.618 178.694 339.968 178.694C339.44 178.694 338.978 178.835 338.579 179.116C338.181 179.397 337.87 179.767 337.647 180.224V187H336.021V177.49H337.56ZM345.558 182.166C345.558 180.707 345.903 179.535 346.595 178.65C347.286 177.76 348.191 177.314 349.311 177.314C350.424 177.314 351.306 177.695 351.956 178.457V173.5H353.582V187H352.088L352.009 185.98C351.358 186.777 350.453 187.176 349.293 187.176C348.191 187.176 347.292 186.725 346.595 185.822C345.903 184.92 345.558 183.742 345.558 182.289V182.166ZM347.184 182.351C347.184 183.429 347.406 184.272 347.852 184.882C348.297 185.491 348.912 185.796 349.697 185.796C350.729 185.796 351.481 185.333 351.956 184.407V180.039C351.47 179.143 350.723 178.694 349.715 178.694C348.918 178.694 348.297 179.002 347.852 179.617C347.406 180.232 347.184 181.144 347.184 182.351ZM360.183 182.166C360.183 180.707 360.528 179.535 361.22 178.65C361.911 177.76 362.816 177.314 363.936 177.314C365.049 177.314 365.931 177.695 366.581 178.457V173.5H368.207V187H366.713L366.634 185.98C365.983 186.777 365.078 187.176 363.918 187.176C362.816 187.176 361.917 186.725 361.22 185.822C360.528 184.92 360.183 183.742 360.183 182.289V182.166ZM361.809 182.351C361.809 183.429 362.031 184.272 362.477 184.882C362.922 185.491 363.537 185.796 364.322 185.796C365.354 185.796 366.106 185.333 366.581 184.407V180.039C366.095 179.143 365.348 178.694 364.34 178.694C363.543 178.694 362.922 179.002 362.477 179.617C362.031 180.232 361.809 181.144 361.809 182.351ZM376.609 187C376.516 186.812 376.439 186.479 376.381 185.998C375.625 186.783 374.723 187.176 373.674 187.176C372.736 187.176 371.966 186.912 371.362 186.385C370.765 185.852 370.466 185.178 370.466 184.363C370.466 183.373 370.841 182.605 371.591 182.061C372.347 181.51 373.407 181.234 374.772 181.234H376.354V180.487C376.354 179.919 376.185 179.468 375.845 179.134C375.505 178.794 375.004 178.624 374.342 178.624C373.762 178.624 373.275 178.771 372.883 179.063C372.49 179.356 372.294 179.711 372.294 180.127H370.659C370.659 179.652 370.826 179.195 371.16 178.756C371.5 178.311 371.957 177.959 372.531 177.701C373.111 177.443 373.747 177.314 374.438 177.314C375.534 177.314 376.393 177.59 377.014 178.141C377.635 178.686 377.957 179.438 377.98 180.399V184.776C377.98 185.649 378.092 186.344 378.314 186.859V187H376.609ZM373.911 185.761C374.421 185.761 374.904 185.629 375.361 185.365C375.818 185.102 376.149 184.759 376.354 184.337V182.386H375.08C373.088 182.386 372.092 182.969 372.092 184.135C372.092 184.645 372.262 185.043 372.602 185.33C372.941 185.617 373.378 185.761 373.911 185.761ZM382.067 177.49L382.12 178.686C382.847 177.771 383.796 177.314 384.968 177.314C386.978 177.314 387.991 178.448 388.009 180.716V187H386.383V180.707C386.377 180.021 386.219 179.515 385.908 179.187C385.604 178.858 385.126 178.694 384.476 178.694C383.948 178.694 383.485 178.835 383.087 179.116C382.688 179.397 382.378 179.767 382.155 180.224V187H380.529V177.49H382.067ZM394.275 185.849C394.855 185.849 395.362 185.673 395.796 185.321C396.229 184.97 396.47 184.53 396.517 184.003H398.055C398.025 184.548 397.838 185.066 397.492 185.559C397.146 186.051 396.684 186.443 396.104 186.736C395.529 187.029 394.92 187.176 394.275 187.176C392.98 187.176 391.949 186.745 391.182 185.884C390.42 185.017 390.039 183.833 390.039 182.333V182.061C390.039 181.135 390.209 180.312 390.549 179.591C390.889 178.87 391.375 178.311 392.008 177.912C392.646 177.514 393.399 177.314 394.267 177.314C395.333 177.314 396.218 177.634 396.921 178.272C397.63 178.911 398.008 179.74 398.055 180.76H396.517C396.47 180.145 396.235 179.641 395.813 179.248C395.397 178.85 394.882 178.65 394.267 178.65C393.44 178.65 392.799 178.949 392.342 179.547C391.891 180.139 391.665 180.997 391.665 182.122V182.43C391.665 183.525 391.891 184.369 392.342 184.961C392.793 185.553 393.438 185.849 394.275 185.849ZM403.829 187.176C402.54 187.176 401.491 186.754 400.683 185.91C399.874 185.061 399.47 183.927 399.47 182.509V182.21C399.47 181.267 399.648 180.426 400.006 179.688C400.369 178.943 400.873 178.363 401.518 177.947C402.168 177.525 402.871 177.314 403.627 177.314C404.863 177.314 405.824 177.722 406.51 178.536C407.195 179.351 407.538 180.517 407.538 182.034V182.711H401.096C401.119 183.648 401.392 184.407 401.913 184.987C402.44 185.562 403.108 185.849 403.917 185.849C404.491 185.849 404.978 185.731 405.376 185.497C405.774 185.263 406.123 184.952 406.422 184.565L407.415 185.339C406.618 186.563 405.423 187.176 403.829 187.176ZM403.627 178.65C402.971 178.65 402.42 178.891 401.975 179.371C401.529 179.846 401.254 180.514 401.148 181.375H405.912V181.252C405.865 180.426 405.643 179.787 405.244 179.336C404.846 178.879 404.307 178.65 403.627 178.65Z" fill="black"/>
<path d="M347.945 205C347.893 204.896 347.851 204.71 347.818 204.443C347.398 204.88 346.897 205.098 346.314 205.098C345.794 205.098 345.366 204.951 345.03 204.658C344.698 204.362 344.532 203.988 344.532 203.535C344.532 202.985 344.741 202.559 345.157 202.256C345.577 201.95 346.166 201.797 346.925 201.797H347.804V201.382C347.804 201.066 347.709 200.815 347.521 200.63C347.332 200.441 347.053 200.347 346.686 200.347C346.363 200.347 346.093 200.428 345.875 200.591C345.657 200.754 345.548 200.951 345.548 201.182H344.64C344.64 200.918 344.732 200.664 344.918 200.42C345.107 200.173 345.361 199.977 345.68 199.834C346.002 199.691 346.355 199.619 346.739 199.619C347.348 199.619 347.825 199.772 348.17 200.078C348.515 200.381 348.694 200.799 348.707 201.333V203.765C348.707 204.25 348.769 204.635 348.893 204.922V205H347.945ZM346.446 204.312C346.729 204.312 346.998 204.238 347.252 204.092C347.506 203.945 347.69 203.755 347.804 203.521V202.437H347.096C345.989 202.437 345.436 202.76 345.436 203.408C345.436 203.691 345.53 203.913 345.719 204.072C345.908 204.232 346.15 204.312 346.446 204.312ZM350.978 199.717L351.007 200.381C351.41 199.873 351.938 199.619 352.589 199.619C353.705 199.619 354.269 200.249 354.278 201.509V205H353.375V201.504C353.372 201.123 353.284 200.841 353.111 200.659C352.942 200.477 352.677 200.386 352.315 200.386C352.022 200.386 351.765 200.464 351.544 200.62C351.323 200.776 351.15 200.981 351.026 201.235V205H350.123V199.717H350.978ZM355.421 202.314C355.421 201.504 355.613 200.853 355.997 200.361C356.381 199.867 356.884 199.619 357.506 199.619C358.124 199.619 358.614 199.831 358.976 200.254V197.5H359.879V205H359.049L359.005 204.434C358.644 204.876 358.141 205.098 357.496 205.098C356.884 205.098 356.384 204.847 355.997 204.346C355.613 203.844 355.421 203.19 355.421 202.383V202.314ZM356.324 202.417C356.324 203.016 356.448 203.485 356.695 203.823C356.943 204.162 357.285 204.331 357.721 204.331C358.294 204.331 358.712 204.074 358.976 203.56V201.133C358.705 200.635 358.29 200.386 357.73 200.386C357.288 200.386 356.943 200.557 356.695 200.898C356.448 201.24 356.324 201.746 356.324 202.417ZM363.546 202.314C363.546 201.504 363.738 200.853 364.122 200.361C364.506 199.867 365.009 199.619 365.631 199.619C366.249 199.619 366.739 199.831 367.101 200.254V197.5H368.004V205H367.174L367.13 204.434C366.769 204.876 366.266 205.098 365.621 205.098C365.009 205.098 364.509 204.847 364.122 204.346C363.738 203.844 363.546 203.19 363.546 202.383V202.314ZM364.449 202.417C364.449 203.016 364.573 203.485 364.82 203.823C365.068 204.162 365.41 204.331 365.846 204.331C366.419 204.331 366.837 204.074 367.101 203.56V201.133C366.83 200.635 366.415 200.386 365.855 200.386C365.413 200.386 365.068 200.557 364.82 200.898C364.573 201.24 364.449 201.746 364.449 202.417ZM372.672 205C372.62 204.896 372.577 204.71 372.545 204.443C372.125 204.88 371.624 205.098 371.041 205.098C370.52 205.098 370.092 204.951 369.757 204.658C369.425 204.362 369.259 203.988 369.259 203.535C369.259 202.985 369.467 202.559 369.884 202.256C370.304 201.95 370.893 201.797 371.651 201.797H372.53V201.382C372.53 201.066 372.436 200.815 372.247 200.63C372.058 200.441 371.78 200.347 371.412 200.347C371.09 200.347 370.82 200.428 370.602 200.591C370.383 200.754 370.274 200.951 370.274 201.182H369.366C369.366 200.918 369.459 200.664 369.645 200.42C369.833 200.173 370.087 199.977 370.406 199.834C370.729 199.691 371.082 199.619 371.466 199.619C372.075 199.619 372.551 199.772 372.896 200.078C373.242 200.381 373.421 200.799 373.434 201.333V203.765C373.434 204.25 373.495 204.635 373.619 204.922V205H372.672ZM371.173 204.312C371.456 204.312 371.725 204.238 371.979 204.092C372.232 203.945 372.416 203.755 372.53 203.521V202.437H371.822C370.715 202.437 370.162 202.76 370.162 203.408C370.162 203.691 370.257 203.913 370.445 204.072C370.634 204.232 370.877 204.312 371.173 204.312ZM375.704 199.717L375.733 200.381C376.137 199.873 376.664 199.619 377.315 199.619C378.432 199.619 378.995 200.249 379.005 201.509V205H378.102V201.504C378.098 201.123 378.01 200.841 377.838 200.659C377.669 200.477 377.403 200.386 377.042 200.386C376.749 200.386 376.492 200.464 376.271 200.62C376.049 200.776 375.877 200.981 375.753 201.235V205H374.85V199.717H375.704ZM382.486 204.36C382.809 204.36 383.09 204.263 383.331 204.067C383.572 203.872 383.705 203.628 383.731 203.335H384.586C384.57 203.638 384.465 203.926 384.273 204.199C384.081 204.473 383.824 204.691 383.502 204.854C383.183 205.016 382.844 205.098 382.486 205.098C381.767 205.098 381.194 204.858 380.768 204.38C380.344 203.898 380.133 203.241 380.133 202.407V202.256C380.133 201.742 380.227 201.284 380.416 200.884C380.605 200.483 380.875 200.173 381.227 199.951C381.581 199.73 382 199.619 382.481 199.619C383.074 199.619 383.565 199.797 383.956 200.151C384.35 200.506 384.56 200.967 384.586 201.533H383.731C383.705 201.191 383.575 200.911 383.341 200.693C383.11 200.472 382.823 200.361 382.481 200.361C382.022 200.361 381.666 200.527 381.412 200.859C381.161 201.188 381.036 201.665 381.036 202.29V202.461C381.036 203.07 381.161 203.538 381.412 203.867C381.663 204.196 382.021 204.36 382.486 204.36ZM387.794 205.098C387.078 205.098 386.495 204.863 386.046 204.395C385.597 203.923 385.372 203.293 385.372 202.505V202.339C385.372 201.815 385.471 201.348 385.67 200.938C385.872 200.524 386.152 200.202 386.51 199.971C386.871 199.736 387.262 199.619 387.682 199.619C388.368 199.619 388.902 199.845 389.283 200.298C389.664 200.75 389.854 201.398 389.854 202.241V202.617H386.275C386.288 203.138 386.44 203.56 386.729 203.882C387.022 204.201 387.394 204.36 387.843 204.36C388.162 204.36 388.432 204.295 388.653 204.165C388.875 204.035 389.068 203.862 389.234 203.647L389.786 204.077C389.343 204.757 388.679 205.098 387.794 205.098ZM387.682 200.361C387.317 200.361 387.011 200.495 386.764 200.762C386.516 201.025 386.363 201.396 386.305 201.875H388.951V201.807C388.925 201.348 388.801 200.993 388.58 200.742C388.359 200.488 388.059 200.361 387.682 200.361Z" fill="black"/>
<path d="M331.074 238.479L332.414 239.154L332.414 239.154L331.074 238.479ZM333.03 232.237C333.816 231.977 334.665 232.404 334.924 233.191L339.157 246.01C339.417 246.797 338.99 247.645 338.203 247.905C337.416 248.165 336.568 247.737 336.308 246.951L332.546 235.556L321.151 239.318C320.364 239.578 319.516 239.151 319.256 238.364C318.997 237.578 319.424 236.729 320.21 236.47L333.03 232.237ZM329.734 237.805L332.16 232.987L334.84 234.336L332.414 239.154L329.734 237.805ZM229.429 330.774C272.954 312.852 308.564 279.846 329.734 237.805L332.414 239.154C310.919 281.84 274.764 315.351 230.571 333.548L229.429 330.774Z" fill="black"/>
<path d="M273.021 328.631L272.276 327.329L273.021 328.631ZM339.913 267.081L338.677 266.232L338.677 266.232L339.913 267.081ZM346.227 256.025C347.041 255.874 347.824 256.412 347.975 257.227L350.433 270.501C350.584 271.316 350.046 272.098 349.231 272.249C348.417 272.4 347.634 271.862 347.483 271.048L345.298 259.248L333.499 261.433C332.684 261.584 331.902 261.046 331.751 260.231C331.6 259.417 332.138 258.634 332.952 258.483L346.227 256.025ZM253.256 338.198L272.276 327.329L273.765 329.933L254.744 340.802L253.256 338.198ZM338.677 266.232L345.264 256.65L347.736 258.35L341.149 267.931L338.677 266.232ZM272.276 327.329C298.723 312.216 321.42 291.332 338.677 266.232L341.149 267.931C323.637 293.404 300.603 314.597 273.765 329.933L272.276 327.329Z" fill="black"/>
<path d="M296.26 334.89L296.921 336.237L296.921 336.237L296.26 334.89ZM345.672 300.813L344.648 299.717L344.648 299.717L345.672 300.813ZM353.551 292.001C354.379 292.029 355.027 292.723 354.999 293.551L354.54 307.043C354.512 307.871 353.818 308.519 352.99 308.491C352.162 308.463 351.514 307.769 351.542 306.941L351.95 294.948L339.957 294.54C339.129 294.512 338.48 293.818 338.509 292.99C338.537 292.162 339.231 291.514 340.059 291.542L353.551 292.001ZM266.839 347.653L295.6 333.544L296.921 336.237L268.161 350.347L266.839 347.653ZM344.648 299.717L352.476 292.404L354.524 294.596L346.696 301.909L344.648 299.717ZM295.6 333.544C313.527 324.748 330.056 313.349 344.648 299.717L346.696 301.909C331.887 315.744 315.114 327.311 296.921 336.237L295.6 333.544Z" fill="black"/>
<path d="M305.687 349.553L305.256 348.117L305.687 349.553ZM338.202 336.649L338.873 337.991L338.873 337.991L338.202 336.649ZM355.974 326.577C356.76 326.839 357.185 327.688 356.923 328.474L352.654 341.282C352.392 342.067 351.543 342.492 350.757 342.23C349.971 341.968 349.546 341.119 349.808 340.333L353.603 328.949L342.218 325.154C341.433 324.892 341.008 324.043 341.27 323.257C341.532 322.471 342.381 322.046 343.167 322.308L355.974 326.577ZM280.568 355.536L305.256 348.117L306.119 350.99L281.432 358.409L280.568 355.536ZM337.531 335.307L354.829 326.658L356.171 329.342L338.873 337.991L337.531 335.307ZM305.256 348.117C316.361 344.779 327.159 340.493 337.531 335.307L338.873 337.991C328.347 343.253 317.389 347.602 306.119 350.99L305.256 348.117Z" fill="black"/>
<path d="M405.757 53.7974L623.399 341.01C647.354 372.623 624.806 418 585.142 418H149.858C110.194 418 87.6461 372.623 111.601 341.01L329.243 53.7974C348.45 28.4507 386.55 28.4506 405.757 53.7974Z" stroke="black" stroke-width="4"/>
<path d="M64.5938 97.0938H85.5312L84.6562 102H57.8438L65.75 56.5H71.6562L64.5938 97.0938ZM109.5 67.5625C112.333 67.6042 114.76 68.375 116.781 69.875C118.802 71.375 120.292 73.4479 121.25 76.0938C122.229 78.7188 122.562 81.5938 122.25 84.7188L122.188 85.4062C121.792 88.6979 120.812 91.6771 119.25 94.3438C117.688 96.9896 115.667 99.0521 113.188 100.531C110.708 102.01 107.99 102.708 105.031 102.625C102.219 102.583 99.7917 101.812 97.75 100.312C95.7292 98.8125 94.25 96.7708 93.3125 94.1875C92.375 91.6042 92.0417 88.7604 92.3125 85.6562C92.625 82.1562 93.5729 79.0104 95.1562 76.2188C96.7396 73.4271 98.7708 71.2708 101.25 69.75C103.75 68.2083 106.5 67.4792 109.5 67.5625ZM98 85.6875C97.8542 87 97.8542 88.3646 98 89.7812C98.2083 92.2396 98.9375 94.1979 100.188 95.6562C101.458 97.1146 103.146 97.875 105.25 97.9375C107.125 98 108.854 97.5417 110.438 96.5625C112.021 95.5625 113.354 94.0625 114.438 92.0625C115.521 90.0625 116.219 87.8438 116.531 85.4062C116.698 83.4896 116.729 81.875 116.625 80.5625C116.375 78.0417 115.615 76.0521 114.344 74.5938C113.073 73.1354 111.385 72.3646 109.281 72.2812C106.365 72.2188 103.885 73.3646 101.844 75.7188C99.8021 78.0729 98.5417 81.1562 98.0625 84.9688L98 85.6875ZM138.25 94.0938L150.438 68.1875H156.406L139.375 102H135.062L128.438 68.1875H134L138.25 94.0938ZM170.531 102.625C166.323 102.542 163.031 100.99 160.656 97.9688C158.281 94.9479 157.281 91.0833 157.656 86.375L157.812 85.0312C158.167 81.6771 159.156 78.6146 160.781 75.8438C162.427 73.0729 164.427 70.9896 166.781 69.5938C169.135 68.1771 171.677 67.5 174.406 67.5625C177.885 67.6458 180.615 68.8021 182.594 71.0312C184.573 73.2604 185.656 76.2812 185.844 80.0938C185.906 81.4479 185.865 82.8021 185.719 84.1562L185.375 86.75H163.281C162.906 89.8125 163.406 92.4167 164.781 94.5625C166.177 96.7083 168.25 97.8229 171 97.9062C174.333 97.9896 177.417 96.4896 180.25 93.4062L183.5 96.1562C182.083 98.1979 180.25 99.8021 178 100.969C175.771 102.115 173.281 102.667 170.531 102.625ZM174.125 72.2812C171.792 72.2188 169.75 73.0104 168 74.6562C166.271 76.3021 164.896 78.75 163.875 82L180.312 82.0312L180.438 81.5312C180.771 78.9062 180.344 76.7292 179.156 75C177.99 73.25 176.312 72.3438 174.125 72.2812ZM198.156 89.2188C198.427 86.8229 199.062 84.7083 200.062 82.875C201.062 81.0417 202.688 79.125 204.938 77.125L207.469 74.9062C210.073 72.5938 211.542 70.1667 211.875 67.625C212.125 65.6667 211.802 64.0729 210.906 62.8438C210.01 61.6146 208.615 60.9583 206.719 60.875C204.594 60.8333 202.844 61.4062 201.469 62.5938C200.115 63.7604 199.26 65.2708 198.906 67.125L193.281 67.1562C193.677 63.7188 195.146 60.9688 197.688 58.9062C200.25 56.8229 203.375 55.8021 207.062 55.8438C210.562 55.9271 213.271 57.0312 215.188 59.1562C217.125 61.2812 217.948 64.0625 217.656 67.5C217.302 71.2917 215.177 74.9375 211.281 78.4375L207.469 81.6875C205.427 83.5417 204.167 86.0417 203.688 89.1875L198.156 89.2188ZM195.938 99.1875C195.958 98.2083 196.271 97.4062 196.875 96.7812C197.479 96.1354 198.281 95.7917 199.281 95.75C200.24 95.7292 201.031 96.0312 201.656 96.6562C202.302 97.2604 202.615 98.0521 202.594 99.0312C202.594 99.9896 202.281 100.781 201.656 101.406C201.031 102.031 200.229 102.354 199.25 102.375C198.271 102.417 197.469 102.135 196.844 101.531C196.24 100.927 195.938 100.146 195.938 99.1875ZM227.781 89.2188C228.052 86.8229 228.688 84.7083 229.688 82.875C230.688 81.0417 232.312 79.125 234.562 77.125L237.094 74.9062C239.698 72.5938 241.167 70.1667 241.5 67.625C241.75 65.6667 241.427 64.0729 240.531 62.8438C239.635 61.6146 238.24 60.9583 236.344 60.875C234.219 60.8333 232.469 61.4062 231.094 62.5938C229.74 63.7604 228.885 65.2708 228.531 67.125L222.906 67.1562C223.302 63.7188 224.771 60.9688 227.312 58.9062C229.875 56.8229 233 55.8021 236.688 55.8438C240.188 55.9271 242.896 57.0312 244.812 59.1562C246.75 61.2812 247.573 64.0625 247.281 67.5C246.927 71.2917 244.802 74.9375 240.906 78.4375L237.094 81.6875C235.052 83.5417 233.792 86.0417 233.312 89.1875L227.781 89.2188ZM225.562 99.1875C225.583 98.2083 225.896 97.4062 226.5 96.7812C227.104 96.1354 227.906 95.7917 228.906 95.75C229.865 95.7292 230.656 96.0312 231.281 96.6562C231.927 97.2604 232.24 98.0521 232.219 99.0312C232.219 99.9896 231.906 100.781 231.281 101.406C230.656 102.031 229.854 102.354 228.875 102.375C227.896 102.417 227.094 102.135 226.469 101.531C225.865 100.927 225.562 100.146 225.562 99.1875Z" fill="black"/>
<path d="M357.061 368.061C357.646 367.475 357.646 366.525 357.061 365.939L347.515 356.393C346.929 355.808 345.979 355.808 345.393 356.393C344.808 356.979 344.808 357.929 345.393 358.515L353.879 367L345.393 375.485C344.808 376.071 344.808 377.021 345.393 377.607C345.979 378.192 346.929 378.192 347.515 377.607L357.061 368.061ZM295 368.5H356V365.5H295V368.5Z" fill="black"/>
<path d="M400.926 238.479L399.586 239.154L399.586 239.154L400.926 238.479ZM398.97 232.237C398.184 231.977 397.335 232.404 397.076 233.191L392.843 246.01C392.583 246.797 393.01 247.645 393.797 247.905C394.584 248.165 395.432 247.737 395.692 246.951L399.454 235.556L410.849 239.318C411.636 239.578 412.484 239.151 412.744 238.364C413.003 237.578 412.576 236.729 411.79 236.47L398.97 232.237ZM402.266 237.805L399.84 232.987L397.16 234.336L399.586 239.154L402.266 237.805ZM502.571 330.774C459.046 312.852 423.436 279.846 402.266 237.805L399.586 239.154C421.081 281.84 457.236 315.351 501.429 333.548L502.571 330.774Z" fill="black"/>
<path d="M458.979 328.631L459.724 327.329L458.979 328.631ZM392.087 267.081L393.323 266.232L393.323 266.232L392.087 267.081ZM385.773 256.025C384.959 255.874 384.176 256.412 384.025 257.227L381.567 270.501C381.416 271.316 381.954 272.098 382.769 272.249C383.583 272.4 384.366 271.862 384.517 271.048L386.702 259.248L398.501 261.433C399.316 261.584 400.098 261.046 400.249 260.231C400.4 259.417 399.862 258.634 399.048 258.483L385.773 256.025ZM478.744 338.198L459.724 327.329L458.235 329.933L477.256 340.802L478.744 338.198ZM393.323 266.232L386.736 256.65L384.264 258.35L390.851 267.931L393.323 266.232ZM459.724 327.329C433.277 312.216 410.58 291.332 393.323 266.232L390.851 267.931C408.363 293.404 431.397 314.597 458.235 329.933L459.724 327.329Z" fill="black"/>
<path d="M435.74 334.89L435.079 336.237L435.079 336.237L435.74 334.89ZM386.328 300.813L387.352 299.717L387.352 299.717L386.328 300.813ZM378.449 292.001C377.621 292.029 376.973 292.723 377.001 293.551L377.46 307.043C377.488 307.871 378.182 308.519 379.01 308.491C379.838 308.463 380.486 307.769 380.458 306.941L380.05 294.948L392.043 294.54C392.871 294.512 393.52 293.818 393.491 292.99C393.463 292.162 392.769 291.514 391.941 291.542L378.449 292.001ZM465.161 347.653L436.4 333.544L435.079 336.237L463.839 350.347L465.161 347.653ZM387.352 299.717L379.524 292.404L377.476 294.596L385.304 301.909L387.352 299.717ZM436.4 333.544C418.473 324.748 401.944 313.349 387.352 299.717L385.304 301.909C400.113 315.744 416.886 327.311 435.079 336.237L436.4 333.544Z" fill="black"/>
<path d="M426.313 349.553L426.744 348.117L426.313 349.553ZM393.798 336.649L393.127 337.991L393.127 337.991L393.798 336.649ZM376.026 326.577C375.24 326.839 374.815 327.688 375.077 328.474L379.346 341.282C379.608 342.067 380.457 342.492 381.243 342.23C382.029 341.968 382.454 341.119 382.192 340.333L378.397 328.949L389.782 325.154C390.567 324.892 390.992 324.043 390.73 323.257C390.468 322.471 389.619 322.046 388.833 322.308L376.026 326.577ZM451.432 355.536L426.744 348.117L425.881 350.99L450.568 358.409L451.432 355.536ZM394.469 335.307L377.171 326.658L375.829 329.342L393.127 337.991L394.469 335.307ZM426.744 348.117C415.639 344.779 404.841 340.493 394.469 335.307L393.127 337.991C403.653 343.253 414.611 347.602 425.881 350.99L426.744 348.117Z" fill="black"/>
<path d="M374.939 368.061C374.354 367.475 374.354 366.525 374.939 365.939L384.485 356.393C385.071 355.808 386.021 355.808 386.607 356.393C387.192 356.979 387.192 357.929 386.607 358.515L378.121 367L386.607 375.485C387.192 376.071 387.192 377.021 386.607 377.607C386.021 378.192 385.071 378.192 384.485 377.607L374.939 368.061ZM437 368.5H376V365.5H437V368.5Z" fill="black"/>
<path d="M385.232 227.077L444.204 162.424C458.258 147.016 447.327 122.25 426.473 122.25H308.527C287.673 122.25 276.742 147.016 290.796 162.424L349.768 227.077C359.287 237.512 375.713 237.512 385.232 227.077Z" stroke="black" stroke-width="2"/>
</g>
</svg>
